<?xml version="1.0" standalone="no"?><!DOCTYPE svg PUBLIC "-//W3C//DTD SVG 1.1//EN" "http://www.w3.org/Graphics/SVG/1.1/DTD/svg11.dtd"><svg t="1564983925036" class="icon" viewBox="0 0 1024 1024" version="1.1" xmlns="http://www.w3.org/2000/svg" p-id="2950" xmlns:xlink="http://www.w3.org/1999/xlink" width="200" height="200"><defs><style type="text/css"></style></defs><path d="M350.74999982 718.43750027l-94.82812482-106.17187554-37.21875018 138.46875018c-1.54687473 7.96874991-3.70312482 6.23437482 2.20312518 4.68750009l129.84374982-37.03124982z m-72.32812455-151.4062499l117.18749982 131.34374945 391.59375018-403.78125009c9.84375027-10.17187509 9.84375027-20.81250027 0-30.93749946l-93.00000036-95.85937518c-9.51562463-9.84375027-18.65625018-9.84375027-28.12499973 0l-387.65624991 399.23437528z m-45.00000054 233.57812472c-41.90625027 9.46875037-68.67187482-17.81250019-60.328125-60.42187518l48.9375-182.34375018 4.21875-4.40624954L632.46874963 135.12499973c27.93750018-28.6875 67.5-28.6875 95.3906251 0l93.04687545 95.90625027c27.51562518 28.31250009 27.51562518 67.82812481 1e-8 96.23437509l-410.06250001 422.81250018-177.37500037 50.57812491zM165.82812537 915.82812518a28.82812527 28.82812527 0 0 1 0-57.65625055h692.34374926a28.82812527 28.82812527 0 0 1 0 57.65625056H165.82812537z" p-id="2951"></path></svg>