<?xml version="1.0" standalone="no"?><!DOCTYPE svg PUBLIC "-//W3C//DTD SVG 1.1//EN" "http://www.w3.org/Graphics/SVG/1.1/DTD/svg11.dtd"><svg t="1564983514658" class="icon" viewBox="0 0 1024 1024" version="1.1" xmlns="http://www.w3.org/2000/svg" p-id="2728" xmlns:xlink="http://www.w3.org/1999/xlink" width="200" height="200"><defs><style type="text/css"></style></defs><path d="M716.8 768c0 25.6-19.2 44.8-44.8 44.8h-320c-25.6 0-44.8-19.2-44.8-44.8v-470.4h409.6V768z m-320-547.2c0-6.4 3.2-9.6 9.6-9.6h214.4c6.4 0 9.6 3.2 9.6 9.6v25.6h-230.4c-3.2 0-3.2-25.6-3.2-25.6z m451.2 25.6h-169.6v-25.6c0-35.2-28.8-60.8-60.8-60.8h-214.4c-35.2 0-60.8 28.8-60.8 60.8v25.6h-169.6c-16 0-25.6 12.8-25.6 25.6s12.8 25.6 25.6 25.6h80V768c0 54.4 44.8 99.2 99.2 99.2h320c54.4 0 99.2-44.8 99.2-99.2v-470.4h80c16 0 25.6-12.8 25.6-25.6s-12.8-25.6-28.8-25.6z m-336 486.4c16 0 25.6-12.8 25.6-25.6v-284.8c0-16-12.8-25.6-25.6-25.6s-25.6 12.8-25.6 25.6v284.8c0 12.8 9.6 25.6 25.6 25.6m-124.8 0c16 0 25.6-12.8 25.6-25.6v-284.8c0-16-12.8-25.6-25.6-25.6s-25.6 12.8-25.6 25.6v284.8c0 12.8 12.8 25.6 25.6 25.6m249.6 0c16 0 25.6-12.8 25.6-25.6v-284.8c0-16-12.8-25.6-25.6-25.6s-25.6 12.8-25.6 25.6v284.8c0 12.8 9.6 25.6 25.6 25.6" p-id="2729"></path></svg>