<?xml version="1.0" standalone="no"?><!DOCTYPE svg PUBLIC "-//W3C//DTD SVG 1.1//EN" "http://www.w3.org/Graphics/SVG/1.1/DTD/svg11.dtd"><svg t="1562649848787" class="icon" viewBox="0 0 1024 1024" version="1.1" xmlns="http://www.w3.org/2000/svg" p-id="1143" xmlns:xlink="http://www.w3.org/1999/xlink" width="200" height="200"><defs><style type="text/css"></style></defs><path d="M812.856627 920.287917l-601.704045 0c-47.424102 0-85.957721-38.566364-85.957721-85.941348L125.194862 726.867696c0-11.864212 9.657964-21.457708 21.537526-21.457708 11.799744 0 21.441335 9.593496 21.441335 21.457708l0 107.478873c0 23.663956 19.266809 42.915415 42.97886 42.915415l601.704045 0c23.728424 0 42.97886-19.25146 42.97886-42.915415L855.835488 726.867696c0-11.864212 9.657964-21.457708 21.537526-21.457708s21.441335 9.593496 21.441335 21.457708l0 107.478873C898.814348 881.722576 860.247984 920.287917 812.856627 920.287917L812.856627 920.287917zM656.146493 591.630618c-4.204765 4.221138-9.657964 6.299473-15.205307 6.299473-5.531993 0-10.984169-2.078335-15.189957-6.299473-8.394181-8.378831-8.394181-21.98471 0-30.363542l193.404871-193.436594c8.394181-8.378831 22.001083-8.378831 30.395264 0 8.394181 8.442276 8.394181 22.032806 0 30.426987L656.146493 591.630618 656.146493 591.630618zM520.23915 725.252919c-2.638083 1.103124-5.452175 1.614777-8.234545 1.614777-5.580089 0-11.08036-2.174526-15.189957-6.299473l-322.341452-322.30973c-8.394181-8.394181-8.394181-21.98471 0-30.426987 8.394181-8.378831 22.001083-8.378831 30.395264 0l285.694811 285.694811L490.56327 125.163651c0-11.864212 9.577123-21.457708 21.441335-21.457708 11.879562 0 21.537526 9.593496 21.537526 21.457708l0 580.246337C533.54213 714.059995 528.249591 721.927173 520.23915 725.252919L520.23915 725.252919z" p-id="1144" fill="#ffffff"></path></svg>