<?xml version="1.0" standalone="no"?><!DOCTYPE svg PUBLIC "-//W3C//DTD SVG 1.1//EN" "http://www.w3.org/Graphics/SVG/1.1/DTD/svg11.dtd"><svg t="1563269792025" class="icon" viewBox="0 0 1024 1024" version="1.1" xmlns="http://www.w3.org/2000/svg" p-id="6336" xmlns:xlink="http://www.w3.org/1999/xlink" width="200" height="200"><defs><style type="text/css"></style></defs><path d="M404.211 592.842c-14.883 0-26.948 12.065-26.948 26.947 0 14.883 12.065 26.947 26.948 26.947h134.736v134.737c0 14.883 12.064 26.947 26.947 26.947s26.947-12.064 26.947-26.947V646.736h134.737c14.883 0 26.947-12.064 26.947-26.947 0-14.882-12.064-26.947-26.947-26.947H592.842v-53.895h134.737c14.883 0 26.947-12.064 26.947-26.947s-12.064-26.947-26.947-26.947H592.842v-17.3l100.026-100.226c10.084-10.103 10.084-26.482 0-36.585-10.083-10.103-26.429-10.103-36.513 0l-91.279 91.461-91.279-91.461c-10.084-10.103-26.43-10.103-36.514 0-10.079 10.103-10.079 26.482 0 36.585l101.664 101.866v15.66H404.211c-14.883 0-26.948 12.064-26.948 26.947s12.065 26.947 26.948 26.947h134.736v53.895H404.211z m296.421-458.106c0-44.647-36.194-80.842-80.843-80.842H458.105c-44.648 0-80.843 36.194-80.843 80.842v80.843h323.369v-80.843z m-80.843 26.949H458.105c-14.883 0-26.947-12.065-26.947-26.948 0-14.882 12.064-26.947 26.947-26.947h161.684c14.883 0 26.947 12.065 26.947 26.947s-12.064 26.948-26.947 26.948z m188.632-53.896h-53.895v53.896h53.895c29.766 0 53.895 24.129 53.895 53.895v646.736c0 29.766-24.129 53.896-53.895 53.896H269.474c-29.765 0-53.895-24.13-53.895-53.896V215.579c0-29.766 24.129-53.895 53.895-53.895h53.895v-53.896h-53.895c-59.53 0-107.79 48.26-107.79 107.79v646.736c0 59.531 48.259 107.79 107.79 107.79h538.947c59.53 0 107.79-48.259 107.79-107.79V215.579c0-59.53-48.26-107.79-107.79-107.79z" p-id="6337"></path></svg>