<?xml version="1.0" standalone="no"?><!DOCTYPE svg PUBLIC "-//W3C//DTD SVG 1.1//EN" "http://www.w3.org/Graphics/SVG/1.1/DTD/svg11.dtd"><svg t="1563269255251" class="icon" viewBox="0 0 1024 1024" version="1.1" xmlns="http://www.w3.org/2000/svg" p-id="4330" xmlns:xlink="http://www.w3.org/1999/xlink" width="200" height="200"><defs><style type="text/css"></style></defs><path d="M527.36 865.28H88.064c-11.264 0-20.48-9.216-20.48-20.48V271.36H885.76v299.52c0 16.896 13.824 30.72 30.72 30.72s30.72-13.824 30.72-30.72V82.944c0-45.056-36.864-81.92-81.92-81.92H88.064c-45.056 0-81.92 36.864-81.92 81.92V844.8c0 45.056 36.864 81.92 81.92 81.92H527.36c16.896 0 30.72-13.824 30.72-30.72s-13.824-30.72-30.72-30.72zM67.584 82.944c0-11.264 9.216-20.48 20.48-20.48H865.28c11.264 0 20.48 9.216 20.48 20.48V209.92H67.584V82.944z" fill="#646464" p-id="4331"></path><path d="M147.456 137.216m-30.72 0a30.72 30.72 0 1 0 61.44 0 30.72 30.72 0 1 0-61.44 0Z" fill="#646464" p-id="4332"></path><path d="M244.736 137.216m-30.72 0a30.72 30.72 0 1 0 61.44 0 30.72 30.72 0 1 0-61.44 0Z" fill="#646464" p-id="4333"></path><path d="M347.136 137.216m-30.72 0a30.72 30.72 0 1 0 61.44 0 30.72 30.72 0 1 0-61.44 0Z" fill="#646464" p-id="4334"></path><path d="M710.656 551.936c-101.376 0-183.808 82.432-183.808 183.808s82.432 183.808 183.808 183.808 183.808-82.432 183.808-183.808-82.432-183.808-183.808-183.808z m0 306.176c-67.584 0-122.368-54.784-122.368-122.368s54.784-122.368 122.368-122.368 122.368 54.784 122.368 122.368-54.784 122.368-122.368 122.368zM1006.08 961.536l-112.64-94.208c-13.312-10.752-32.768-8.704-43.52 4.096-10.752 13.312-8.704 32.768 4.096 43.52l112.64 94.208c5.632 4.608 12.288 7.168 19.456 7.168 8.704 0 17.408-3.584 24.064-11.264 10.752-13.312 8.704-32.768-4.096-43.52z" fill="#646464" p-id="4335"></path><path d="M798.72 518.144c11.264 0 20.48-9.216 20.48-20.48l0.512-81.92c0-5.12-2.56-10.24-6.144-14.336s-8.704-6.144-14.336-6.144h-50.176l-457.728-87.04c-3.584-3.584-9.216-6.144-14.848-6.144H189.44c-11.264 0-20.48 9.216-20.48 20.48v70.656h-35.328c-11.264 0-20.48 9.216-20.48 20.48l-0.512 81.92c0 5.12 2.56 10.24 6.144 14.336s8.704 6.144 14.336 6.144h36.864c-0.512 2.048-1.024 4.096-1.024 6.144v179.2h-25.6c-11.264 0-20.48 9.216-20.48 20.48v87.04c0 11.264 9.216 20.48 20.48 20.48h179.2c11.264 0 20.48-9.216 20.48-20.48v-87.04c0-11.264-9.216-20.48-20.48-20.48h-25.6v-184.832l501.76 1.536z m-161.792-123.392L296.96 393.728V330.24l339.968 64.512zM209.92 343.04h46.08v50.688h-46.08V343.04z m92.16 399.36v46.08H163.84v-46.08h138.24z m-93.184-226.304H256V701.44h-46.08v-179.2c0-2.048-0.512-4.096-1.024-6.144z m-55.296-40.96v-40.96l624.64 2.048v40.96l-624.64-2.048z" fill="#646464" p-id="4336"></path></svg>