<?xml version="1.0" standalone="no"?><!DOCTYPE svg PUBLIC "-//W3C//DTD SVG 1.1//EN" "http://www.w3.org/Graphics/SVG/1.1/DTD/svg11.dtd"><svg t="1564756308998" class="icon" viewBox="0 0 1024 1024" version="1.1" xmlns="http://www.w3.org/2000/svg" p-id="7240" xmlns:xlink="http://www.w3.org/1999/xlink" width="200" height="200"><defs><style type="text/css"></style></defs><path d="M896 128H128a85.333333 85.333333 0 0 0-85.333333 85.333333v554.666667a85.333333 85.333333 0 0 0 85.333333 85.333333h139.946667a549.546667 549.546667 0 0 1 134.4 16.64l46.506666 11.52a263.253333 263.253333 0 0 0 128 0l46.506667-11.52a549.546667 549.546667 0 0 1 132.693333-16.64H896a85.333333 85.333333 0 0 0 85.333333-85.333333V213.333333a85.333333 85.333333 0 0 0-85.333333-85.333333zM422.826667 787.2A633.6 633.6 0 0 0 267.946667 768H128V213.333333h341.333333v585.386667z m333.226666-19.2a640 640 0 0 0-155.306666 19.2l-46.08 11.52V213.333333h341.333333v554.666667z" p-id="7241" fill="#ffffff"></path><path d="M341.333333 298.666667H256a42.666667 42.666667 0 0 0 0 85.333333h85.333333a42.666667 42.666667 0 0 0 0-85.333333zM341.333333 426.666667H256a42.666667 42.666667 0 0 0 0 85.333333h85.333333a42.666667 42.666667 0 0 0 0-85.333333zM768 298.666667h-85.333333a42.666667 42.666667 0 0 0 0 85.333333h85.333333a42.666667 42.666667 0 0 0 0-85.333333zM768 426.666667h-85.333333a42.666667 42.666667 0 0 0 0 85.333333h85.333333a42.666667 42.666667 0 0 0 0-85.333333z" p-id="7242" fill="#ffffff"></path></svg>