<?xml version="1.0" standalone="no"?><!DOCTYPE svg PUBLIC "-//W3C//DTD SVG 1.1//EN" "http://www.w3.org/Graphics/SVG/1.1/DTD/svg11.dtd"><svg t="1564756388419" class="icon" viewBox="0 0 1024 1024" version="1.1" xmlns="http://www.w3.org/2000/svg" p-id="8047" xmlns:xlink="http://www.w3.org/1999/xlink" width="200" height="200"><defs><style type="text/css"></style></defs><path d="M813.4 387.1H212.92c-24.81 0-45-20.19-45-45V218.49c0-24.81 20.19-45 45-45H813.4c24.81 0 45 20.19 45 45V342.1c0 24.82-20.18 45-45 45zM212.92 203.49c-8.27 0-15 6.73-15 15V342.1c0 8.27 6.73 15 15 15H813.4c8.27 0 15-6.73 15-15V218.49c0-8.27-6.73-15-15-15H212.92z" fill="#ffffff" p-id="8048"></path><path d="M276.92 331.26c-5.52 0-10-4.48-10-10v-81.92c0-5.52 4.48-10 10-10s10 4.48 10 10v81.92c0 5.52-4.47 10-10 10zM790.08 291.17h-20c-5.52 0-10-4.48-10-10s4.48-10 10-10h20c5.52 0 10 4.48 10 10s-4.48 10-10 10z m-56 0h-20c-5.52 0-10-4.48-10-10s4.48-10 10-10h20c5.52 0 10 4.48 10 10s-4.48 10-10 10z m-56 0h-20c-5.52 0-10-4.48-10-10s4.48-10 10-10h20c5.52 0 10 4.48 10 10s-4.48 10-10 10zM647.92 622.1h-435c-24.81 0-45-20.19-45-45V453.49c0-24.81 20.19-45 45-45H813.4c24.81 0 45 20.19 45 45v29.43c0 8.28-6.72 15-15 15s-15-6.72-15-15v-29.43c0-8.27-6.73-15-15-15H212.92c-8.27 0-15 6.73-15 15V577.1c0 8.27 6.73 15 15 15h435c8.28 0 15 6.72 15 15s-6.71 15-15 15z" fill="#ffffff" p-id="8049"></path><path d="M276.92 566.26c-5.52 0-10-4.48-10-10v-81.92c0-5.52 4.48-10 10-10s10 4.48 10 10v81.92c0 5.52-4.47 10-10 10zM481.69 857.1H212.92c-24.81 0-45-20.19-45-45V688.49c0-24.81 20.19-45 45-45h371.23c8.28 0 15 6.72 15 15s-6.72 15-15 15H212.92c-8.27 0-15 6.73-15 15V812.1c0 8.27 6.73 15 15 15h268.77c8.28 0 15 6.72 15 15s-6.71 15-15 15z" fill="#ffffff" p-id="8050"></path><path d="M276.92 801.26c-5.52 0-10-4.48-10-10v-81.92c0-5.52 4.48-10 10-10s10 4.48 10 10v81.92c0 5.52-4.47 10-10 10z" fill="#ffffff" p-id="8051"></path><path d="M535.24 863.62a10 10 0 0 1-9.36-13.52l40.51-107.85c0.25-0.67 0.57-1.3 0.94-1.88 0.5-1.36 1.3-2.61 2.35-3.64l180-178.05c0.39-0.61 0.85-1.19 1.38-1.72l33.3-33.19c14.91-14.83 39.15-14.83 54.04-0.01l26.62 26.57c7.23 7.21 11.21 16.8 11.21 27s-3.98 19.79-11.21 27l-32.32 32.22c-0.4 0.63-0.88 1.23-1.42 1.76L650.31 817.32c-0.36 0.36-0.75 0.68-1.15 0.98-1 1.11-2.27 2.02-3.76 2.6l-106.5 42.02c-1.18 0.47-2.43 0.7-3.66 0.7z m45.21-101.93l-27.93 74.36 73.45-28.98-45.52-45.38z m10.45-17.82l52.41 52.25 166.75-164.95-52.41-52.25L590.9 743.87z m180.77-179.22l52.41 52.25 26.82-26.74c3.44-3.43 5.33-7.99 5.33-12.84s-1.9-9.41-5.34-12.84l-26.61-26.56c-7.11-7.07-18.69-7.07-25.82 0.01l-26.79 26.72z" fill="#ffffff" p-id="8052"></path></svg>