<?xml version="1.0" standalone="no"?><!DOCTYPE svg PUBLIC "-//W3C//DTD SVG 1.1//EN" "http://www.w3.org/Graphics/SVG/1.1/DTD/svg11.dtd"><svg t="1564756228824" class="icon" viewBox="0 0 1024 1024" version="1.1" xmlns="http://www.w3.org/2000/svg" p-id="6978" xmlns:xlink="http://www.w3.org/1999/xlink" width="200" height="200"><defs><style type="text/css"></style></defs><path d="M311.2 433.6V389c0-0.9-0.8-1.7-1.7-1.7h-44.6c-0.9 0-1.7 0.8-1.7 1.7v44.6c0 0.9 0.8 1.7 1.7 1.7h44.6c1-0.1 1.7-0.8 1.7-1.7zM613.1 387.2H364.6c-0.9 0-1.7 0.8-1.7 1.7v44.6c0 0.9 0.8 1.7 1.7 1.7h248.5c0.9 0 1.7-0.8 1.7-1.7v-44.6c0-0.9-0.8-1.7-1.7-1.7zM263.9 498.1c-0.9 0-1.7 0.8-1.7 1.7v44.6c0 0.9 0.8 1.7 1.7 1.7h44.6c0.9 0 1.7-0.8 1.7-1.7v-44.6c0-0.9-0.8-1.7-1.7-1.7h-44.6zM612.4 498.1H363.9c-0.9 0-1.7 0.8-1.7 1.7v44.6c0 0.9 0.8 1.7 1.7 1.7h248.5c0.9 0 1.7-0.8 1.7-1.7v-44.6c0-1-0.7-1.7-1.7-1.7zM838.1 611.4c-0.7-0.7-1.7-0.7-2.4 0L655 792.1c-0.7 0.7-0.7 1.7 0 2.4l31.6 31.6c0.7 0.7 1.7 0.7 2.4 0l180.8-180.8c0.7-0.7 0.7-1.7 0-2.4l-31.7-31.5zM905.7 606.9l-31.6-31.6c-0.7-0.7-1.7-0.7-2.4 0l-28 28c-0.7 0.7-0.7 1.7 0 2.4l31.6 31.6c0.7 0.7 1.7 0.7 2.4 0l28-28c0.7-0.7 0.7-1.8 0-2.4zM650.7 800.2c-0.9-0.9-2.4-0.5-2.8 0.6l-15.7 45.8c-0.5 1.3 0.8 2.6 2.1 2.1l45.8-15.7c1.2-0.4 1.5-1.9 0.6-2.8l-30-30z" p-id="6979" fill="#ffffff"></path><path d="M165.8 181H250v65c0 1.1 0.9 2 2 2h429c1.1 0 2-0.9 2-2v-65h83.8v415h48V135c0-1.1-0.9-2-2-2H683V80c0-1.1-0.9-2-2-2H252c-1.1 0-2 0.9-2 2v53H119.8c-1.1 0-2 0.9-2 2v809c0 1.1 0.9 2 2 2h494v-48h-448V181zM298 128c0-1.1 0.9-2 2-2h333c1.1 0 2 0.9 2 2v70c0 1.1-0.9 2-2 2H300c-1.1 0-2-0.9-2-2v-70z" p-id="6980" fill="#ffffff"></path></svg>