<?xml version="1.0" standalone="no"?><!DOCTYPE svg PUBLIC "-//W3C//DTD SVG 1.1//EN" "http://www.w3.org/Graphics/SVG/1.1/DTD/svg11.dtd"><svg t="1564756464300" class="icon" viewBox="0 0 1024 1024" version="1.1" xmlns="http://www.w3.org/2000/svg" p-id="8321" xmlns:xlink="http://www.w3.org/1999/xlink" width="200" height="200"><defs><style type="text/css"></style></defs><path d="M905.216 401.408 905.216 401.408c-26.624-28.672-65.536-45.056-104.448-45.056-4.096 0-8.192 0-10.24 0L790.528 180.224c0-18.432-16.384-34.816-34.816-34.816L108.544 145.408c-18.432 0-34.816 16.384-34.816 34.816l0 647.168c0 18.432 16.384 34.816 34.816 34.816l647.168 0c18.432 0 34.816-16.384 34.816-34.816l0-176.128c4.096 0 6.144 0 10.24 0 40.96 0 77.824-16.384 104.448-43.008 26.624-26.624 43.008-63.488 43.008-104.448C948.224 462.848 931.84 428.032 905.216 401.408zM448.512 188.416l286.72 0 0 182.272c-14.336 8.192-26.624 16.384-38.912 28.672-20.48 20.48-34.816 45.056-40.96 75.776L448.512 475.136 448.512 188.416zM415.744 794.624l-286.72 0 0-286.72 286.72 0L415.744 794.624zM415.744 475.136l-286.72 0 0-286.72 286.72 0L415.744 475.136zM735.232 794.624l-286.72 0 0-286.72 204.8 0c2.048 38.912 18.432 73.728 43.008 100.352 10.24 10.24 24.576 20.48 38.912 26.624L735.232 794.624zM800.768 608.256c-57.344 0-104.448-47.104-104.448-104.448 0-57.344 47.104-104.448 104.448-104.448s104.448 47.104 104.448 104.448C905.216 561.152 858.112 608.256 800.768 608.256z" p-id="8322" fill="#ffffff"></path><path d="M849.92 460.8 849.92 460.8c4.096-4.096 12.288-4.096 18.432 0 4.096 4.096 4.096 12.288 0 18.432l-79.872 79.872c-4.096 6.144-12.288 6.144-18.432 0l0 0-36.864-36.864c-4.096-4.096-4.096-12.288 0-18.432 6.144-4.096 12.288-4.096 18.432 0L778.24 532.48 849.92 460.8 849.92 460.8z" p-id="8323" fill="#ffffff"></path><path d="M301.056 593.92 301.056 593.92c6.144-6.144 16.384-6.144 22.528 0 6.144 6.144 6.144 16.384 0 22.528L286.72 655.36l38.912 38.912c6.144 6.144 6.144 16.384 0 22.528-6.144 6.144-16.384 6.144-22.528 0l-38.912-38.912-38.912 38.912c-6.144 6.144-16.384 6.144-22.528 0-6.144-6.144-6.144-16.384 0-22.528l38.912-38.912-38.912-38.912c-6.144-6.144-6.144-16.384 0-22.528 6.144-6.144 16.384-6.144 22.528 0l38.912 38.912L301.056 593.92 301.056 593.92z" p-id="8324" fill="#ffffff"></path><path d="M245.76 253.952 245.76 253.952c0-8.192 8.192-16.384 16.384-16.384 8.192 0 16.384 8.192 16.384 16.384l0 55.296 55.296 0c8.192 0 16.384 6.144 16.384 16.384 0 8.192-8.192 16.384-16.384 16.384l-55.296 0 0 55.296c0 10.24-8.192 16.384-16.384 16.384-10.24 0-16.384-8.192-16.384-16.384l0-55.296L190.464 342.016c-10.24 0-16.384-8.192-16.384-16.384 0-10.24 8.192-16.384 16.384-16.384L245.76 309.248 245.76 253.952 245.76 253.952z" p-id="8325" fill="#ffffff"></path><path d="M665.6 671.744 665.6 671.744c8.192 0 16.384 8.192 16.384 16.384 0 8.192-8.192 16.384-16.384 16.384-120.832 0-22.528 0-143.36 0-8.192 0-16.384-8.192-16.384-16.384 0-8.192 6.144-16.384 16.384-16.384C641.024 671.744 544.768 671.744 665.6 671.744L665.6 671.744z" p-id="8326" fill="#ffffff"></path><path d="M665.6 606.208 665.6 606.208c8.192 0 16.384 8.192 16.384 16.384 0 8.192-8.192 16.384-16.384 16.384-120.832 0-22.528 0-143.36 0-8.192 0-16.384-8.192-16.384-16.384 0-10.24 6.144-16.384 16.384-16.384C641.024 606.208 544.768 606.208 665.6 606.208L665.6 606.208z" p-id="8327" fill="#ffffff"></path><path d="M665.6 309.248 665.6 309.248c8.192 0 16.384 6.144 16.384 16.384 0 8.192-8.192 16.384-16.384 16.384-120.832 0-22.528 0-143.36 0-8.192 0-16.384-8.192-16.384-16.384 0-10.24 6.144-16.384 16.384-16.384C641.024 309.248 544.768 309.248 665.6 309.248L665.6 309.248z" p-id="8328" fill="#ffffff"></path></svg>