<?xml version="1.0" standalone="no"?><!DOCTYPE svg PUBLIC "-//W3C//DTD SVG 1.1//EN" "http://www.w3.org/Graphics/SVG/1.1/DTD/svg11.dtd"><svg t="1564751221345" class="icon" viewBox="0 0 1024 1024" version="1.1" xmlns="http://www.w3.org/2000/svg" p-id="2945" xmlns:xlink="http://www.w3.org/1999/xlink" width="200" height="200"><defs><style type="text/css"></style></defs><path d="M897.2 490.3c0-16.5-8.3-29.8-19.1-40.1 10.6-11.3 16.1-23.8 16.1-37 0-10.2-3.4-23.9-16.9-37.9 14.9-12.8 22.9-27.6 22.9-43.4 0-25.9-21.3-49.1-59.9-65.4C805.8 252 760.2 244 712 244s-93.8 8-128.3 22.5c-38.6 16.3-59.9 39.5-59.9 65.4 0 14.7 6.9 28.6 19.9 40.8-17 14.5-22.1 29.2-22.8 40.4-8.1-2.4-16.5-4.6-25.3-6.4 3.7-7.2 5.7-14.8 5.7-22.4 0-10.9-3.8-25.5-19.1-40.1 13.2-12.3 20.1-26.2 20.1-41 0-10.7-3.7-25.2-18.8-39.8 11-11.4 16.8-24.2 16.8-37.7 0-25.9-21.3-49.1-59.9-65.4-34.5-14.5-80.1-22.5-128.3-22.5-48.2 0-93.8 8-128.3 22.5-38.6 16.3-59.9 39.5-59.9 65.4 0 14.3 6.5 27.8 18.8 39.7-13.4 13.9-16.8 27.6-16.8 37.8 0 14 6.2 27.2 18.1 39-14.4 14.3-18.1 28.4-18.1 39.1 0 10.9 3.9 25.7 19.5 40.5-15.7 14.9-19.5 29.6-19.5 40.4 0 14.1 6.3 27.4 18 39-14.4 14.3-18 28.4-18 39.1 0 15.8 7.8 30.4 22.2 43-18 15.7-22.2 31.5-22.2 42.9 0 14.1 6.3 27.3 18.1 39-14.4 14.3-18.1 28.4-18.1 39.1 0 13.9 6.3 34.5 36.3 53.3 17.6 11 40.9 19.9 68.1 25.9-1.8 5.4-2.4 10.4-2.4 14.8 0 25.9 21.3 49.1 59.9 65.4 34.5 14.5 80.1 22.5 128.3 22.5s93.8-8 128.3-22.5c33.4-14.1 53.8-33.4 58.7-55.1 30.8 9.4 67.6 14.5 105.9 14.5 48.2 0 93.8-8 128.3-22.5 38.6-16.3 59.9-39.5 59.9-65.4 0-11.5-4.3-27.3-22.3-43 14.6-12.7 22.3-27.3 22.3-42.9 0-15.9-7.8-28.9-18.1-39.1 11.8-11.8 18.1-25 18.1-39 0-10.8-3.8-25.6-19.5-40.5 12.8-12.1 19.5-25.8 19.5-40.4z m-30 0c0 12.7-15.5 26.8-41.6 37.7-30.9 13-72.3 20.2-116.7 20.2-43.7 0-84.7-7-115.5-19.7-0.8-0.3-1.6-0.7-2.4-1-1-1.2-2-2.3-3.1-3.5 10.4-11 15.9-23.2 16.2-36.1 30 8.6 65.2 13.3 101.8 13.3 48.2 0 93.8-8 128.3-22.5 7.2-3 13.7-6.3 19.6-9.7 8.7 7 13.4 14.5 13.4 21.3z m-293 229.9c0 12.7-15.5 26.8-41.6 37.7-30.9 13-72.3 20.2-116.7 20.2s-85.7-7.2-116.7-20.2c-11.8-5-21.5-10.6-28.5-16.5l-0.2-0.3-0.1 0.1c-8.2-6.9-12.7-14.2-12.7-21 0-8.9 7.5-16.9 14.8-22.7 4.7 2.5 9.7 4.9 15.1 7.2 34.5 14.5 80.1 22.5 128.3 22.5s93.8-8 128.3-22.5c5.4-2.3 10.4-4.7 15.1-7.2 7.5 5.8 14.9 13.8 14.9 22.7z m-41.5-271.1c26 11 41.6 25.1 41.6 37.7 0 12.7-15.5 26.8-41.6 37.7-30.9 13-72.3 20.2-116.7 20.2s-85.7-7.2-116.7-20.2c-26-11-41.6-25.1-41.6-37.7 0-12.7 15.5-26.8 41.6-37.7 30.9-13 72.3-20.2 116.7-20.2s85.8 7.2 116.7 20.2z m41.5 112.1c0 12.7-15.5 26.8-41.6 37.7-30.9 13-72.3 20.2-116.7 20.2s-85.7-7.2-116.7-20.2c-11.8-5-21.5-10.6-28.5-16.5l-0.2-0.3-0.1 0.1c-8.2-6.9-12.7-14.2-12.7-21 0-7 4.6-13.5 10.2-18.7 6 3.5 12.5 6.7 19.7 9.8 34.5 14.5 80.1 22.5 128.3 22.5s93.8-8 128.3-22.5c7.2-3 13.8-6.3 19.7-9.8 5.7 5.3 10.3 11.7 10.3 18.7z m0 78.1c0 12.7-15.5 26.8-41.6 37.7-30.9 13-72.3 20.2-116.7 20.2S330.2 690 299.2 677c-26-11-41.6-25.1-41.6-37.7 0-6.7 4.5-14 12.8-21 5.3 2.9 11 5.7 17.1 8.3 34.5 14.5 80.1 22.5 128.3 22.5s93.8-8 128.3-22.5c6.2-2.6 11.9-5.4 17.1-8.3 8.5 7 13 14.3 13 21z m21.1-345.2c30.9-13 72.3-20.2 116.7-20.2s85.7 7.2 116.7 20.2c26 11 41.6 25.1 41.6 37.7 0 12.7-15.5 26.8-41.6 37.7-30.9 13-72.3 20.2-116.7 20.2s-85.7-7.2-116.7-20.2c-26-11-41.6-25.1-41.6-37.7 0.1-12.6 15.6-26.7 41.6-37.7z m-11.6 103.2c34.5 14.5 80.1 22.5 128.3 22.5s93.8-8 128.3-22.5c3.9-1.6 7.6-3.3 11.1-5.1 6.7 5.6 12.8 13 12.8 21 0 12.7-15.5 26.8-41.6 37.7-30.9 13-72.3 20.2-116.7 20.2-43 0-83.5-6.8-114.2-19.2-1-0.4-1.9-0.8-2.9-1.2-8.5-9.3-20.4-17.8-35.4-25.1-0.8-1.5-1.5-3-1.9-4.4-0.5-1.7-0.8-3.3-0.8-5 0-10.5 10.5-19.9 18.8-25.6 4.5 2.3 9.2 4.6 14.2 6.7zM195.3 188c30.9-13 72.3-20.2 116.7-20.2 44.3 0 85.7 7.2 116.7 20.2 26 11 41.6 25.1 41.6 37.7 0 12.7-15.5 26.8-41.6 37.7-30.9 13-72.3 20.2-116.7 20.2s-85.7-7.2-116.7-20.2c-26-11-41.6-25.1-41.6-37.7 0.1-12.7 15.6-26.8 41.6-37.7z m-39.5 115.2c0-7.6 5.4-14.5 11.6-20 5 2.8 10.5 5.4 16.3 7.9 34.5 14.5 80.1 22.5 128.3 22.5s93.8-8 128.3-22.5c6.8-2.9 13.1-6 18.8-9.2 6.8 5.7 13.1 13.1 13.1 21.3 0 12.7-15.5 26.8-41.6 37.7-30.9 13-72.3 20.2-116.7 20.2s-85.7-7.2-116.7-20.2c-11.8-5-21.5-10.6-28.5-16.5l-0.2-0.3-0.1 0.1c-8.1-6.9-12.6-14.2-12.6-21z m29.9 65.4c34.5 14.5 80.1 22.5 128.3 22.5s93.8-8 128.3-22.5c5.1-2.1 9.9-4.4 14.4-6.8 12.4 9.7 14.5 17.9 14.5 22.5 0 5.5-2.9 11.3-8.7 17.2-15-1.7-30.7-2.6-46.6-2.6-48.2 0-93.8 8-128.3 22.5-11.1 4.7-20.7 9.9-28.8 15.6l0.3-1.7c-67.1-9.9-103.3-35.2-103.3-54 0-6.7 4.5-14 12.8-21 5.2 2.9 10.9 5.7 17.1 8.3z m-29.9 93.6c0-8.9 7.5-16.9 14.8-22.7 17.6 9.4 39.5 16.9 64.4 22-4.8 8-7.2 16.5-7.2 25.3 0 8.6 2.4 16.9 6.9 24.8-21.9-5-41.1-12.2-55.1-20.6-4.1-2.5-7.7-5-10.8-7.6l-0.2-0.3s-0.1 0-0.1 0.1c-8.2-7-12.7-14.2-12.7-21z m76.1 79.6c-3.1 7.2-4.2 13.8-4.2 19.4 0 10.2 3.3 20.1 9.8 29.2-23.1-5.1-43.3-12.4-57.9-21.3-15.4-9.3-23.8-19.5-23.8-28.9 0-6.7 4.5-14 12.7-21 16.9 9.6 38.3 17.2 63.4 22.6z m-76.1 84.4c0-10.5 10.5-19.8 18.7-25.6 15.8 8 35.1 14.5 57.4 19.3-3.1 7.1-4.1 13.7-4.1 19.4 0 13.9 6.1 27 17.7 38.6-36.6-7-62.4-18.5-76.6-30.4l-0.2-0.4c-0.1 0-0.1 0.1-0.1 0.1-8.5-7.1-12.8-14.4-12.8-21z m0 78.1c0-6.7 4.5-14 12.7-21 16.5 9.2 37.3 16.7 61.6 22.1-1.8 5.4-2.4 10.4-2.4 14.8 0 12.5 5 24.4 14.5 35.2-56.7-11.4-86.4-34-86.4-51.1zM532.7 836c-30.9 13-72.3 20.2-116.7 20.2S330.3 849 299.3 836c-26-11-41.6-25.1-41.6-37.7 0-6.7 4.5-14 12.8-21 5.3 2.9 11 5.7 17.1 8.3 34.5 14.5 80.1 22.5 128.3 22.5s93.8-8 128.3-22.5c6.2-2.6 11.9-5.4 17.1-8.3 8.2 7 12.8 14.3 12.8 21 0.1 12.7-15.4 26.8-41.4 37.7z m334.5-100.8c0 12.7-15.5 26.8-41.6 37.7-30.9 13-72.3 20.2-116.7 20.2-41.3 0-80.4-6.3-110.6-17.8-2.8-5.2-6.7-10.7-12.2-16.2 11-11 17.2-23.2 18-36.1 30.6 9.2 66.8 14.2 104.9 14.2 48.2 0 93.8-8 128.3-22.5 3.9-1.6 7.6-3.3 11.1-5.1 8.5 5.8 18.8 15.1 18.8 25.6z m0-85.9c0 12.7-15.5 26.8-41.6 37.7-30.9 13-72.3 20.2-116.7 20.2-44.4 0-87.3-7.6-117.9-20.7-1.9-2.3-4-4.5-6.4-6.8 11.1-10.6 17.7-22.3 19.2-34.8 30.6 9.3 67.1 14.3 105.1 14.3 48.2 0 93.8-8 128.3-22.5 6.2-2.6 11.9-5.4 17.1-8.3 8.4 6.9 12.9 14.2 12.9 20.9z m0-78.1c0 12.7-15.5 26.8-41.6 37.7-30.9 13-72.3 20.2-116.7 20.2-43.3 0-84-6.9-114.7-19.4-2.2-3.2-4.9-6.3-8.1-9.5 11-11 17.2-23.2 18-36.2 30.6 9.2 67 14.2 104.9 14.2 48.2 0 93.8-8 128.3-22.5 5.4-2.3 10.4-4.7 15.1-7.2 7.4 5.8 14.8 13.8 14.8 22.7z" p-id="2946" fill="#ffffff"></path><path d="M395 222l-83-23.9-83 23.9 83 24zM333 486.9l83 23.9 83-23.9-83-24zM795 331.9l-83-24-83 24 83 23.9z" p-id="2947" fill="#ffffff"></path></svg>