<?xml version="1.0" standalone="no"?><!DOCTYPE svg PUBLIC "-//W3C//DTD SVG 1.1//EN" "http://www.w3.org/Graphics/SVG/1.1/DTD/svg11.dtd"><svg t="1564755733500" class="icon" viewBox="0 0 1024 1024" version="1.1" xmlns="http://www.w3.org/2000/svg" p-id="6300" xmlns:xlink="http://www.w3.org/1999/xlink" width="200" height="200"><defs><style type="text/css"></style></defs><path d="M864 192h-384a128 128 0 0 0-128-128h-192a128 128 0 0 0-128 128v640a128 128 0 0 0 128 128h704a128 128 0 0 0 128-128V320a128 128 0 0 0-128-128z m-704-64h192a64 64 0 0 1 64 64h-320a64 64 0 0 1 64-64z m768 704a64 64 0 0 1-64 64h-704a64 64 0 0 1-64-64V256h768a64 64 0 0 1 64 64v512z" fill="#ffffff" p-id="6301"></path><path d="M416 608H256v64h3.264A191.168 191.168 0 0 0 416 828.736V832h64V608h-64z m-91.52 64H416v91.52a127.872 127.872 0 0 1-91.52-91.52z" fill="#ffffff" p-id="6302"></path><path d="M544 320a223.296 223.296 0 0 0-220.736 192H320v64h192v192h64v-3.264A223.36 223.36 0 0 0 768 544 224 224 0 0 0 544 320z m32 380.416V512H387.584a159.616 159.616 0 0 1 316.096 32A159.616 159.616 0 0 1 576 700.416z" fill="#ffffff" p-id="6303"></path></svg>