<?xml version="1.0" standalone="no"?><!DOCTYPE svg PUBLIC "-//W3C//DTD SVG 1.1//EN" "http://www.w3.org/Graphics/SVG/1.1/DTD/svg11.dtd"><svg t="1564755642836" class="icon" viewBox="0 0 1024 1024" version="1.1" xmlns="http://www.w3.org/2000/svg" p-id="6011" xmlns:xlink="http://www.w3.org/1999/xlink" width="200" height="200"><defs><style type="text/css"></style></defs><path d="M512 1024c-6.4 0-6.4 0-12.8 0-38.4-12.8-76.8-25.6-108.8-38.4-153.6-51.2-320-108.8-320-320L70.4 172.8c0-19.2 12.8-32 32-32 256 0 390.4-134.4 390.4-134.4C492.8 6.4 505.6 0 512 0c0 0 0 0 0 0 6.4 0 19.2 6.4 25.6 12.8 0 0 134.4 134.4 390.4 134.4 19.2 0 32 12.8 32 32l0 486.4c0 211.2-172.8 268.8-320 320-38.4 12.8-76.8 25.6-108.8 38.4C518.4 1024 518.4 1024 512 1024zM128 204.8l0 454.4c0 166.4 128 211.2 275.2 262.4C441.6 934.4 480 940.8 512 960c32-12.8 70.4-25.6 102.4-38.4 147.2-51.2 275.2-89.6 275.2-262.4L889.6 204.8c-204.8-6.4-332.8-89.6-384-134.4C460.8 115.2 332.8 198.4 128 204.8z" p-id="6012" fill="#ffffff"></path><path d="M512 768c-19.2 0-32-12.8-32-32L480 448c0-19.2 12.8-32 32-32S544 428.8 544 448l0 288C544 755.2 531.2 768 512 768z" p-id="6013" fill="#ffffff"></path><path d="M652.8 550.4 371.2 550.4c-19.2 0-32-12.8-32-32s12.8-32 32-32l288 0c19.2 0 32 12.8 32 32S672 550.4 652.8 550.4z" p-id="6014" fill="#ffffff"></path><path d="M652.8 665.6 371.2 665.6c-19.2 0-32-12.8-32-32s12.8-32 32-32l288 0c19.2 0 32 12.8 32 32S672 665.6 652.8 665.6z" p-id="6015" fill="#ffffff"></path><path d="M512 480c-6.4 0-19.2 0-25.6-6.4L358.4 339.2c-12.8-12.8-12.8-32 0-44.8 12.8-12.8 32-12.8 44.8 0l134.4 134.4c12.8 12.8 12.8 32 0 44.8C531.2 473.6 518.4 480 512 480z" p-id="6016" fill="#ffffff"></path><path d="M512 480c-6.4 0-19.2 0-25.6-6.4-12.8-12.8-12.8-32 0-44.8l134.4-134.4c12.8-12.8 32-12.8 44.8 0 12.8 12.8 12.8 32 0 44.8L537.6 467.2C531.2 473.6 518.4 480 512 480z" p-id="6017" fill="#ffffff"></path></svg>